/* XPM */
static char * icon_xpm[] = {
"16 16 16 1",
" 	c #011737",
".	c #405E87",
"+	c #48648A",
"@	c #021D43",
"#	c #29456B",
"$	c #193864",
"%	c #274572",
"&	c #425D83",
"*	c #34537E",
"=	c #375278",
"-	c #0C2B57",
";	c #1B365D",
">	c #04224C",
",	c #FFFFFF",
"'	c #35547E",
")	c #38537A",
";;;;;;;;;;;;;;;;",
"###,#########,##",
")==============)",
"&&&,&&&&&,&&&,&&",
"++++++++++++++++",
".,.,.,...,.,.,..",
"'**************'",
"%,%,%,%,%,%,%,%%",
"$$$$$$$$$$$$$$$$",
"----------------",
">,,,,>,>>>>,>>,>",
"@,@@@@,@@@@,@@,@",
"@,,,,@,@@@@,,,,@",
" ,    ,       , ",
" ,    ,,,, ,,,, ",
"                "};
