/* XPM */
static const char *Open_xpm[]={
"32 32 3 1",
". c None",
"# c #000000",
"a c #a0a0a4",
".............######.............",
"............########............",
"...........##.....a##...........",
"..........##.......a##..........",
".........##..........##.........",
"........##............##........",
".......##..............##.......",
"......##................##......",
".....##..................##.....",
"....##....................##....",
"...##......................##...",
"..##........................##..",
".##..####....................##.",
"##..#....#..####...###..####..##",
"##.#.....#..#...#.#...#.#...#.##",
"##.##...##.##..#######.##..##.##",
"##.##...##.#####.##....##..##.##",
"##..#####..##.....#######..##.##",
"##.........##.................##",
"###..........................###",
"################################",
"################################",
"................................",
"################################",
"################################",
"####........................####",
"###..........................###",
"##............................##",
"###..........................###",
"####........................####",
"################################",
"################################"};
