/* XPM */
static const char * About_xpm[] = {
"39 32 2 1",
" 	c None",
".	c #000000",
".......................................",
".......................................",
"....                               ....",
"...                                 ...",
"..                                   ..",
"..                                   ..",
"..                                   ..",
"..                                   ..",
"..                                   ..",
"..                                   ..",
"..                                   ..",
"..                                   ..",
"..   ....   .                    .   ..",
"..  .    .  .       ...   .   . ...  ..",
"..  .    .  ....   .   .  .   .  .   ..",
".. ....... ..  .. ..  .. ..  .. ..   ..",
".. ..   .. ..  .. ..  .. ..  .. ..   ..",
".. ..   .. .....   ....   ....   ... ..",
"..                                   ..",
"..                                   ..",
"..                                   ..",
"..                                   ..",
"..                                   ..",
"..                                   ..",
"..                                   ..",
"..                                   ..",
"..                                   ..",
"..                                   ..",
"...                                 ...",
"....                               ....",
".......................................",
"......................................."};
