<?xml version="1.0" encoding="UTF-8" standalone="no"?>
<!-- Created with Inkscape (http://www.inkscape.org/) -->
<svg
   xmlns:svg="http://www.w3.org/2000/svg"
   xmlns="http://www.w3.org/2000/svg"
   version="1.0"
   width="88"
   height="67"
   id="svg2399">
  <defs
     id="defs2401" />
  <g
     transform="translate(1.1428601,-1.71932)"
     id="layer1">
    <g
       transform="translate(-332.14286,-507.64286)"
       id="g2453">
      <path
         d="M 331,573.36218 C 331,571.71218 331.50294,570.36218 332.11765,570.36218 C 332.73235,570.36218 334.98235,568.61512 337.11765,566.47983 C 340.71876,562.87872 341,562.1848 341,556.90088 C 341,551.49776 341.22776,550.97652 345.42105,546.78323 C 349.81338,542.39091 349.88794,542.36218 356.89537,542.36218 C 363.72092,542.36218 363.99873,542.45904 365.5,545.36218 C 366.35325,547.01218 367.69897,548.36218 368.4905,548.36218 C 371.62409,548.36218 372.01309,551.90213 371.15532,572.61218 L 371,576.36218 L 361.5,576.36218 C 353.83881,576.36218 352,576.07964 352,574.90249 C 352,573.56763 357.25523,568.08969 361.54518,564.9528 C 362.51338,564.24483 362.98524,563.14732 362.59376,562.51388 C 361.20964,560.27433 357.35997,561.41025 353.20576,565.28399 C 349.77902,568.47937 349,569.86858 349,572.78399 L 349,576.36218 L 340,576.36218 L 331,576.36218 L 331,573.36218 z M 353.40804,555.86218 C 354.71013,553.87495 355.8789,553.36218 359.10639,553.36218 C 365.28266,553.36218 363.53556,550.93146 357.09022,550.5571 C 350.99556,550.20312 349,551.41856 349,555.48463 C 349,559.08676 351.17325,559.2729 353.40804,555.86218 z M 379,575.92728 C 379,574.31966 381.13948,570.36218 382.00858,570.36218 C 383.37114,570.36218 390,563.75385 390,562.39551 C 390,561.82718 389.31535,561.36218 388.47856,561.36218 C 387.64177,561.36218 386.46031,560.27179 385.85309,558.9391 C 385.24588,557.6064 383.70023,556.25278 382.41833,555.93104 C 378.00406,554.82313 378.16857,544.38593 382.62727,542.67497 C 385.41843,541.6039 387.47167,543.81615 388,548.46376 L 388.5,552.86218 L 394.40724,553.16678 C 400.57535,553.48482 402.44559,552.44343 401.45171,549.24426 C 400.5452,546.32636 402.74762,542.36218 405.27525,542.36218 C 408.75969,542.36218 410,544.24554 410,549.5365 C 410,553.82989 409.6978,554.46709 407,555.86218 C 405.35,556.71543 404,558.08812 404,558.91261 C 404,559.7371 402.875,560.83941 401.5,561.36218 C 399.16079,562.25154 399,562.76449 399,569.33743 L 399,576.36218 L 389,576.36218 C 383.5,576.36218 379,576.16647 379,575.92728 z M 371.25,539.33102 C 370.0125,538.8336 369,537.9777 369,537.42901 C 369,536.88032 366.07387,533.49081 362.49749,529.89678 C 357.90822,525.28487 355.25032,523.36218 353.46415,523.36218 C 350.867,523.36218 345.25768,528.14367 343.07889,532.21477 C 342.11857,534.00915 341.03122,534.36218 336.46482,534.36218 L 331,534.36218 L 331,530.36218 C 331,528.00914 331.47457,526.36218 332.15259,526.36218 C 332.78652,526.36218 335.93897,523.66218 339.15804,520.36218 L 345.01089,514.36218 L 353.59568,514.36218 C 361.88267,514.36218 362.27177,514.46625 364.81291,517.36218 C 367.11743,519.98845 368.10695,520.36218 372.75602,520.36218 C 377.44752,520.36218 378.45753,519.97132 381.41926,517.00959 C 383.26319,515.16566 385.28902,512.69066 385.92111,511.50959 C 386.98399,509.52358 387.85496,509.36218 397.5095,509.36218 L 407.94864,509.36218 L 409.5,512.36218 C 410.82893,514.93205 411.62118,515.36218 415.02568,515.36218 L 419,515.36218 L 419,522.46917 C 419,528.53897 418.76916,529.48757 417.41821,528.96917 C 416.54823,528.63533 415.41209,528.36218 414.89346,528.36218 C 414.37483,528.36218 413.52277,527.23718 413,525.86218 C 412.06463,523.40196 411.87219,523.36218 400.9071,523.36218 L 389.76471,523.36218 L 385.88235,527.24453 C 382.79372,530.33317 382,531.87155 382,534.76928 C 382,537.75903 381.54038,538.58643 379.4349,539.38693 C 376.36015,540.55595 374.2618,540.54162 371.25,539.33102 z"
         id="path2469"
         style="fill:#d0d0d0;fill-opacity:1" />
      <path
         d="M 331,573.36218 C 331,571.3632 331.50013,570.36218 332.49886,570.36218 C 333.32323,570.36218 335.77361,568.63873 337.94416,566.53228 C 341.80821,562.78235 341.87872,562.58724 341.32141,557.18744 C 340.86329,552.74863 341.08308,551.3983 342.44779,550.26734 C 344.59526,548.48767 347.13149,545.9547 348.78943,543.93386 C 349.72123,542.79808 351.88358,542.36218 356.58594,542.36218 C 362.68446,542.36218 363.19531,542.5404 364.72208,545.20065 C 365.61806,546.7618 367.28463,548.4493 368.42557,548.95065 C 370.35277,549.79749 370.5198,550.80255 370.77902,563.11218 L 371.05805,576.36218 L 362.02902,576.36218 C 351.03556,576.36218 350.50839,575.30335 358,568.26985 C 360.75,565.68802 363,563.07759 363,562.46889 C 363,561.84756 361.27526,561.36218 359.06739,561.36218 C 356.07441,561.36218 354.98989,561.81867 354.52839,563.27272 C 354.19488,564.32352 352.81456,565.90889 351.46101,566.79577 C 349.52919,568.06155 349,569.26344 349,572.38523 L 349,576.36218 L 340,576.36218 L 331,576.36218 L 331,573.36218 z M 353.15881,556.91296 C 354.03646,554.98674 355.15108,554.39952 358.37875,554.16296 C 361.38974,553.94229 362.57359,553.38344 362.82386,552.06461 C 363.12948,550.45409 362.454,550.298 356.33249,550.56461 C 349.65463,550.85545 349.49266,550.92633 349.17543,553.69665 C 348.53473,559.29181 351.12281,561.3815 353.15881,556.91296 z M 380,574.34074 C 380,573.15914 381.03067,571.8497 382.48078,571.18898 C 383.84521,570.56731 385.22553,569.22696 385.54817,568.21042 C 385.8708,567.19389 386.46844,566.36218 386.87626,566.36218 C 387.28407,566.36218 388.44574,565.75673 389.45775,565.01673 C 391.19038,563.7498 391.07023,563.43931 387.39888,559.6961 C 385.2545,557.50974 382.7125,555.42932 381.75,555.07293 C 380.40331,554.57428 380,553.27352 380,549.42875 C 380,544.21954 381.74325,542.0295 385,543.14725 C 387.25239,543.9203 387.96777,545.46985 387.98469,549.61218 C 387.99532,552.21567 388.4586,553.4004 389.5,553.48718 C 401.19601,554.46185 402,554.15966 402,548.78896 C 402,544.23503 403.90535,542.08514 407,543.14725 C 409.25765,543.9221 409.9678,545.47136 409.98469,549.65869 C 409.99751,552.83697 409.5125,553.7326 407.00632,555.15869 C 405.3598,556.09561 404.0098,557.39404 404.00632,558.04409 C 404.00284,558.69413 402.66856,560.17406 401.04124,561.33281 C 398.15303,563.3894 398.09687,563.5937 398.68585,569.90091 L 399.28921,576.36218 L 389.64461,576.36218 C 380.63257,576.36218 380,576.2296 380,574.34074 z M 370.2,538.16218 C 369.54,537.50218 369,536.37718 369,535.66218 C 369,534.94718 368.54068,534.36218 367.97929,534.36218 C 367.41789,534.36218 364.3925,531.66218 361.2562,528.36218 C 357.89676,524.8274 354.70997,522.36218 353.5,522.36218 C 352.29003,522.36218 349.10324,524.8274 345.7438,528.36218 C 340.41437,533.96977 339.74577,534.36218 335.52071,534.36218 L 331,534.36218 L 331,530.36218 C 331,527.35443 331.39875,526.36218 332.60747,526.36218 C 333.49158,526.36218 336.57411,523.88718 339.45754,520.86218 L 344.70013,515.36218 L 353.78197,515.36218 C 362.68231,515.36218 362.90549,515.42071 364.94914,518.29075 C 366.8229,520.92221 367.59348,521.21932 372.54453,521.21932 C 376.07964,521.21932 378.49284,520.70778 379.2773,519.79212 C 379.94978,519.00716 382.41909,516.33931 384.76463,513.86355 L 389.02927,509.36218 L 397.60487,509.36218 C 405.88165,509.36218 406.27219,509.46671 408.81291,512.36218 C 410.86557,514.70143 412.27732,515.36218 415.22268,515.36218 L 419,515.36218 L 419,521.86218 C 419,527.61914 418.77916,528.36218 417.06809,528.36218 C 416.00555,528.36218 414.25496,527.12468 413.17791,525.61218 C 411.24351,522.89571 411.08646,522.86256 400.29553,522.89314 L 389.37142,522.9241 L 385.68571,526.60981 C 382.91238,529.38313 382,531.12067 382,533.62885 C 382,538.0141 380.47165,539.36218 375.5,539.36218 C 373.245,539.36218 370.86,538.82218 370.2,538.16218 z"
         id="path2467"
         style="fill:#b9b9b9;fill-opacity:1" />
      <path
         d="M 331,573.97059 C 331,572.27101 331.7041,571.40228 333.43335,570.96826 C 334.77169,570.63236 336.16072,569.43115 336.52008,568.2989 C 336.87945,567.16665 338.25944,565.74546 339.58673,565.14071 C 341.79642,564.13391 342,563.46237 342,557.18023 C 342,550.91675 342.2081,550.22449 344.38973,549.23047 C 345.70408,548.63161 347.26943,547.06626 347.86829,545.75191 C 348.87277,543.54732 349.52739,543.36218 356.31805,543.36218 C 363.19928,543.36218 363.7532,543.5251 364.81805,545.86218 C 365.44454,547.23718 366.38463,548.36218 366.90713,548.36218 C 367.42964,548.36218 368.56429,549.06932 369.42857,549.93361 C 370.68856,551.1936 371,553.96824 371,563.93361 L 371,576.36218 L 362,576.36218 C 354.77464,576.36218 353,576.07418 353,574.90161 C 353,574.09829 353.5625,572.95375 354.25,572.35818 C 362.8629,564.89697 364.18558,563.29071 362.94627,561.79744 C 359.53789,557.69059 348,566.2951 348,572.94378 L 348,576.36218 L 339.5,576.36218 C 331.20275,576.36218 331,576.30514 331,573.97059 z M 353.51287,557.11218 C 354.26998,555.38647 355.47016,554.79151 358.66345,554.55891 C 361.33884,554.36403 363.04496,553.68741 363.43699,552.66578 C 363.77254,551.79136 363.84386,550.8727 363.59548,550.62432 C 363.04893,550.07778 358.95151,549.89265 353.375,550.16254 C 349.65679,550.34249 349.19105,550.65695 348.65219,553.35124 C 348.32339,554.99523 348.31529,557.02023 348.63418,557.85124 C 349.50119,560.11065 352.38932,559.67314 353.51287,557.11218 z M 380,575.12883 C 380,574.4505 382.475,571.57362 385.5,568.73578 C 388.525,565.89794 391,563.15018 391,562.62964 C 391,562.1091 389.875,561.17063 388.5,560.54413 C 387.125,559.91764 386,558.74496 386,557.93818 C 386,557.13141 384.7625,555.87819 383.25,555.15327 C 380.86953,554.01234 380.5,553.247 380.5,549.45769 C 380.5,544.77009 382.38457,542.52831 385.36408,543.67165 C 386.5442,544.1245 387,545.55664 387,548.81174 C 387,554.03207 388.19883,554.70412 396.56627,554.17448 L 401.5,553.86218 L 402,549.46376 C 402.52777,544.82108 404.58122,542.60377 407.36408,543.67165 C 408.57463,544.13618 409,545.59015 409,549.26341 C 409,553.39809 408.65568,554.33669 406.93904,554.88153 C 405.80552,555.2413 404.40589,556.572 403.82877,557.83864 C 403.25165,559.10529 401.70408,560.63161 400.38973,561.23047 C 398.20037,562.22801 398,562.90803 398,569.34074 L 398,576.36218 L 389,576.36218 C 382.53149,576.36218 380,576.01527 380,575.12883 z M 364.29364,530.8439 C 354.12101,520.32994 352.98083,520.14781 345.62738,527.86218 C 340.72748,533.00258 340.07791,533.36218 335.69235,533.36218 L 331,533.36218 L 331,529.86218 C 331,527.19191 331.41599,526.36218 332.75475,526.36218 C 333.71986,526.36218 336.86057,523.88718 339.7341,520.86218 L 344.95871,515.36218 L 353.56958,515.36218 C 361.88557,515.36218 362.27061,515.46492 364.81291,518.36218 C 367.1211,520.99264 368.10344,521.36218 372.78765,521.36218 C 377.961,521.36218 378.29572,521.18826 383.37262,515.86218 L 388.6153,510.36218 L 397.7846,510.36218 C 406.4617,510.36218 407.04182,510.49638 408.59196,512.86218 C 409.92701,514.89972 411.04117,515.36218 414.61501,515.36218 L 419,515.36218 L 419,521.86218 C 419,529.35185 417.52935,530.34975 413.84188,525.36218 L 411.62388,522.36218 L 400.53463,522.36218 C 389.73595,522.36218 389.37705,522.43424 386.83826,525.11218 C 385.40435,526.62468 383.50081,528.44554 382.60816,529.15854 C 381.51019,530.03553 381.18765,531.26166 381.6111,532.94883 C 382.46187,536.33857 379.61232,539.36763 375.59501,539.3439 C 373.03367,539.32877 371.08499,537.86313 364.29364,530.8439 z"
         id="path2465"
         style="fill:#a3a3a3;fill-opacity:1" />
      <path
         d="M 331,573.86218 C 331,572.22622 331.55887,571.36218 332.61702,571.36218 C 333.50638,571.36218 335.98138,569.56167 338.11702,567.36104 C 341.82196,563.54335 342,563.06077 342,556.83628 C 342,550.78551 342.1825,550.24329 344.51793,549.35536 C 345.9028,548.82884 347.47418,547.24519 348.0099,545.83614 C 348.94735,543.37047 349.25619,543.28528 356.23216,543.56821 C 363.02712,543.8438 363.56257,544.03415 364.79476,546.61218 C 365.51766,548.12468 366.74374,549.36218 367.51938,549.36218 C 369.96202,549.36218 370.51524,552.51825 370.19249,564.61218 L 369.87892,576.36218 L 361.43946,576.36218 C 356.35719,576.36218 353,575.95552 353,575.3399 C 353,574.77764 355.52907,571.86808 358.62015,568.87419 C 362.3095,565.30085 364.03803,562.90367 363.65153,561.89648 C 362.85088,559.81001 356.47286,559.86851 354.78943,561.97776 C 354.08024,562.86632 352.2625,564.76653 350.75,566.20044 C 348.69549,568.1482 348,569.76285 348,572.58486 L 348,576.36218 L 339.5,576.36218 C 331.1,576.36218 331,576.33277 331,573.86218 z M 353.19288,557.8382 C 354.30483,555.39774 355.70442,554.73514 361,554.14214 C 362.74001,553.94728 363.5,553.25419 363.5,551.86218 C 363.5,550.10413 362.73334,549.82589 357.16269,549.5622 C 353.35129,549.38178 350.26231,549.72952 349.41269,550.43464 C 346.74151,552.65153 348.14635,560.36218 351.22144,560.36218 C 351.67323,560.36218 352.56038,559.22639 353.19288,557.8382 z M 381,574.39736 C 381,573.31672 381.88691,571.95789 382.97091,571.37775 C 384.05492,570.7976 386.55975,568.65703 388.5372,566.6209 L 392.13258,562.91886 L 389.05728,560.39052 C 387.36586,558.99993 385.98603,557.34846 385.99099,556.72059 C 385.99594,556.09271 384.92477,555.30913 383.61059,554.97929 C 379.67352,553.99115 378.97572,545.35294 382.717,543.91728 C 385.16043,542.97965 386.86804,545.18036 387.19631,549.69006 L 387.5,553.86218 L 394.75,554.15599 C 400.10064,554.37283 402.04481,554.11085 402.17104,553.15599 C 402.339,551.88554 402.57808,549.47282 402.85843,546.21917 C 403.04627,544.03912 405.89284,543.02836 407.67625,544.50846 C 408.58995,545.26676 408.99185,547.1487 408.79951,549.76824 C 408.55586,553.08643 407.98707,554.09196 405.75,555.15928 C 404.2375,555.8809 403,557.07 403,557.80174 C 403,558.53347 401.875,559.86929 400.5,560.77022 C 398.22874,562.25841 398,563.04664 398,569.38523 L 398,576.36218 L 389.5,576.36218 C 381.7174,576.36218 381,576.19635 381,574.39736 z M 369.84295,535.91683 C 369.20276,534.51177 368.34008,533.36218 367.92588,533.36218 C 367.51168,533.36218 364.71747,530.88718 361.71653,527.86218 C 357.72802,523.84171 355.51774,522.36218 353.5,522.36218 C 351.48226,522.36218 349.27198,523.84171 345.28347,527.86218 C 340.31158,532.87392 339.43539,533.36218 335.4136,533.36218 C 331.17627,533.36218 331,533.24237 331,530.36218 C 331,528.34266 331.49752,527.36218 332.52228,527.36218 C 333.35954,527.36218 336.44174,524.88718 339.37162,521.86218 L 344.69867,516.36218 L 353.82628,516.36218 C 362.45892,516.36218 363.04272,516.49775 364.59196,518.86218 C 366.07042,521.1186 366.8852,521.36218 372.9545,521.36218 C 379.0924,521.36218 379.77488,521.15167 380.77853,518.94892 C 381.38328,517.62162 382.80552,516.2413 383.93904,515.88153 C 385.07257,515.52176 386,514.83987 386,514.36622 C 386,513.89257 386.70714,512.79789 387.57143,511.93361 C 388.74929,510.75575 391.23593,510.36218 397.5,510.36218 C 405.93236,510.36218 406.0841,510.41731 409.78943,514.82748 C 410.54914,515.73171 412.7059,516.36218 415.03943,516.36218 L 419,516.36218 L 419,521.86218 C 419,526.58366 418.73318,527.36218 417.11501,527.36218 C 416.07826,527.36218 414.49289,526.23718 413.59196,524.86218 C 412.0022,522.43591 411.61546,522.36218 400.47809,522.36218 L 389.00229,522.36218 L 385.07262,526.17579 C 382.04053,529.11833 381.06952,530.88852 380.82148,533.92579 C 380.50018,537.85993 380.49729,537.86235 375.75346,538.16683 C 371.49382,538.44023 370.88752,538.20943 369.84295,535.91683 z"
         id="path2463"
         style="fill:#8c8c8c;fill-opacity:1" />
      <path
         d="M 331,573.86218 C 331,571.85651 331.49857,571.36218 333.52144,571.36218 C 335.24055,571.36218 336.40533,570.56668 337.18195,568.86218 C 337.80845,567.48718 338.66666,566.36218 339.08909,566.36218 C 339.51152,566.36218 340.56442,565.6549 341.42888,564.79045 C 342.65159,563.56773 342.85936,562.0169 342.36451,557.80653 C 341.6728,551.92109 342.81157,549.36218 346.12245,549.36218 C 347.26379,549.36218 348,548.65638 348,547.56218 C 348,544.54844 350.15171,543.36218 355.61821,543.36218 C 362.37268,543.36218 364,544.05431 364,546.9271 C 364,549.16768 363.63615,549.29176 356.25,549.57012 L 348.5,549.86218 L 348.18513,554.26307 C 347.86149,558.78652 348.86636,560.31667 352.18045,560.34687 C 353.16795,560.35587 353.99267,559.43437 354.18045,558.11218 C 354.40064,556.56177 355.27732,555.77513 357,555.58222 C 361.95714,555.02711 364.00027,554.30219 364.01531,553.09313 C 364.04663,550.57564 365.73648,549.14377 367.87515,549.82256 C 369.89732,550.46437 370,551.12193 370,563.42957 L 370,576.36218 L 362,576.36218 C 355.02866,576.36218 354.0064,576.13716 354.04977,574.61218 C 354.07714,573.64968 356.33234,571.06218 359.06133,568.86218 C 365.58354,563.60423 365.51192,560.99212 358.83369,560.56081 C 354.84479,560.30318 354.07164,560.5611 353.50785,562.33745 C 353.14511,563.48036 351.75744,565.13023 350.42416,566.00383 C 348.46865,567.28513 348,568.43993 348,571.97719 L 348,576.36218 L 339.5,576.36218 C 331.1,576.36218 331,576.33277 331,573.86218 z M 381,575.19248 C 381,574.54914 383.53741,571.66131 386.63869,568.77508 C 390.47512,565.20467 392.08327,563.02155 391.67007,561.94479 C 391.33606,561.07435 390.36251,560.36218 389.50663,560.36218 C 388.65076,560.36218 387.51971,559.22911 386.99318,557.84425 C 386.46666,556.45938 384.87686,554.88566 383.4603,554.34708 C 381.17137,553.47684 380.91896,552.89551 381.19236,549.12364 C 381.42563,545.90553 381.95456,544.79312 383.38017,544.52241 C 385.81185,544.06067 386.9656,545.96899 386.98469,550.48437 C 386.99927,553.93351 387.19111,554.13712 391,554.74619 C 393.2,555.09798 396.77755,555.10157 398.9501,554.75417 C 402.83303,554.13326 402.9053,554.04378 403.2001,549.49235 C 403.45317,545.5852 403.84583,544.813 405.71465,544.54726 C 410.24582,543.90294 410.04985,553.63088 405.5087,554.77064 C 404.12892,555.11694 403,555.9665 403,556.65855 C 403,557.35059 401.65,559.10142 400,560.54927 C 397.23645,562.97424 397,563.70113 397,569.77195 L 397,576.36218 L 389,576.36218 C 383.55956,576.36218 381,575.98794 381,575.19248 z M 364.27697,529.79822 C 358.31133,523.67804 355.37053,521.36218 353.56447,521.36218 C 351.86345,521.36218 349.15096,523.26246 345,527.36218 C 339.63194,532.66397 338.46389,533.36218 334.9625,533.36218 C 331.22639,533.36218 331,533.19078 331,530.36218 C 331,528.12355 331.46367,527.36218 332.82697,527.36218 C 333.83181,527.36218 336.94159,524.88718 339.7376,521.86218 L 344.82125,516.36218 L 353.87544,516.36218 C 362.24723,516.36218 363.01894,516.53176 364.11452,518.61218 C 365.83434,521.87796 366.89734,522.32984 372.89993,522.34687 C 378.16605,522.3618 378.43301,522.2225 383.67244,516.72582 L 389.04502,511.08945 L 397.68546,511.08945 C 405.86881,511.08945 406.42749,511.22892 408.24636,513.72582 C 409.82028,515.88647 410.96375,516.36218 414.58341,516.36218 L 419,516.36218 L 419,521.86218 C 419,528.281 417.77127,528.8732 413.81291,524.36218 C 411.18699,521.36963 411.15311,521.36218 400.16166,521.36218 C 391.4779,521.36218 388.80985,521.69519 387.57143,522.93361 C 386.70714,523.79789 386,524.84685 386,525.26463 C 386,525.6824 384.875,526.6263 383.5,527.36218 C 381.538,528.41221 381,529.48153 381,532.33116 C 381,536.78046 379.53738,538.38184 375.55,538.29822 C 373.07853,538.24639 370.94025,536.63411 364.27697,529.79822 z"
         id="path2461"
         style="fill:#767676;fill-opacity:1" />
      <path
         d="M 331,574.36218 C 331,573.20662 331.66667,572.36218 332.57895,572.36218 C 333.44737,572.36218 336.14737,570.37271 338.57895,567.94113 C 342.91102,563.60906 343,563.38766 343,556.94113 C 343,550.503 343.05631,550.36218 345.63084,550.36218 C 348.03426,550.36218 348.21872,550.64312 347.76464,553.61218 C 347.11215,557.87861 347.70681,559.30021 350.60487,560.40205 C 353.61856,561.54785 353.68669,563.93019 350.75,565.4767 C 347.64439,567.11217 347.033,568.28029 347.01531,572.61218 L 347,576.36218 L 339,576.36218 C 331.66667,576.36218 331,576.19551 331,574.36218 z M 354,575.15051 C 354,574.48408 356.53207,571.58234 359.62682,568.70218 C 365.27423,563.44638 366.21033,560.47296 362.28139,560.27029 C 361.30162,560.21975 359.15,560.10725 357.5,560.02029 C 355.21937,559.90009 354.5,559.3826 354.5,557.86218 C 354.5,556.23255 355.33333,555.76959 359,555.36218 C 362.45997,554.97774 363.73112,554.33388 364.5,552.57634 C 365.14711,551.09714 366.20577,550.39136 367.5,550.57634 C 369.78161,550.90243 370.16828,554.87336 369.25623,568.61218 L 368.74175,576.36218 L 361.37088,576.36218 C 356.26518,576.36218 354,575.98981 354,575.15051 z M 381,575.40161 C 381,574.87329 381.5625,573.95375 382.25,573.35818 C 388.68665,567.78222 392,564.28101 392,563.05538 C 392,562.25063 390.875,560.85507 389.5,559.95414 C 388.125,559.0532 387,557.65145 387,556.83913 C 387,555.66886 388.54506,555.36218 394.44098,555.36218 C 398.53352,555.36218 402.16701,555.8234 402.5154,556.38711 C 402.8638,556.95082 401.76535,558.62602 400.07442,560.10979 C 397.20965,562.62358 397,563.26971 397,569.58486 L 397,576.36218 L 389,576.36218 C 384.55224,576.36218 381,575.93566 381,575.40161 z M 382.2,553.16218 C 379.59005,550.55223 381.40965,543.53793 384.39907,544.68508 C 385.54106,545.1233 386,546.59843 386,549.8308 C 386,554.47683 384.67566,555.63784 382.2,553.16218 z M 403.66667,553.69551 C 402.83366,552.8625 402.79665,548.05568 403.60699,545.94397 C 404.52662,543.54746 406.9308,544.04997 408,546.86218 C 409.64101,551.17837 406.34581,556.37465 403.66667,553.69551 z M 349,546.86218 C 349,544.43255 349.19791,544.36218 356.03139,544.36218 C 361.55602,544.36218 363.19441,544.70524 363.6771,545.96311 C 364.59807,548.3631 362.19038,549.32986 355.25,549.34687 C 349.24592,549.36158 349,549.26381 349,546.86218 z M 371.78943,536.81429 C 371.08024,535.96294 369.90121,534.72544 369.16935,534.06429 C 368.43749,533.40313 365.2996,530.27468 362.19626,527.11218 C 354.58601,519.35684 352.23172,519.32208 345.26241,526.86218 C 340.52143,531.99143 339.86939,532.36218 335.58938,532.36218 C 331.36071,532.36218 331,532.16569 331,529.86218 C 331,527.98635 331.52617,527.36218 333.10747,527.36218 C 334.35985,527.36218 337.34209,525.13059 340.45754,521.86218 L 345.70013,516.36218 L 353.78197,516.36218 C 361.62042,516.36218 361.92814,516.45253 364,519.36218 C 366.02289,522.20307 366.50497,522.36218 373.08953,522.36218 C 379.52165,522.36218 380.12761,522.17622 381.1732,519.8814 C 381.79487,518.51697 383.06693,517.15832 384,516.86218 C 384.93307,516.56604 386.20513,515.20739 386.8268,513.84296 C 387.91135,511.46263 388.33103,511.36218 397.191,511.36218 C 405.90216,511.36218 406.54053,511.50723 408.46804,513.92456 C 409.87129,515.6844 411.84054,516.66523 414.7556,517.05623 L 419,517.62552 L 419,522.49385 C 419,528.75464 418.18009,528.81172 413.21057,522.89688 C 412.18854,521.68044 409.52817,521.36218 400.38163,521.36218 L 388.84211,521.36218 L 384.31856,525.88573 C 380.69176,529.51253 379.91462,530.88588 380.3984,532.8134 C 381.53974,537.36087 374.83887,540.47499 371.78943,536.81429 z"
         id="path2459"
         style="fill:#606060;fill-opacity:1" />
      <path
         d="M 331,574.36218 C 331,572.89098 331.66667,572.36218 333.52144,572.36218 C 335.20953,572.36218 336.40274,571.57236 337.13171,569.97245 C 337.73057,568.6581 339.29592,567.09275 340.61027,566.49389 C 341.92462,565.89503 343.03115,564.60791 343.06921,563.63362 C 343.10728,562.65933 343.21978,559.39488 343.31921,556.37929 C 343.46223,552.04178 343.86558,550.82528 345.25,550.55596 C 346.68371,550.27706 347,550.9446 347,554.24943 C 347,558.1865 347.51002,559.05672 351.38533,561.73183 C 353.17374,562.96636 353.10948,563.14803 350.13533,565.26581 C 347.42902,567.19288 347,568.1048 347,571.93027 L 347,576.36218 L 339,576.36218 C 331.66667,576.36218 331,576.19551 331,574.36218 z M 354,575.43361 C 354,574.26474 356.85452,571.36218 358.00404,571.36218 C 358.47769,571.36218 359.1292,570.53047 359.45183,569.51394 C 359.77447,568.4974 361.15479,567.15705 362.51922,566.53538 C 367.5386,564.24839 364.95521,559.36218 358.72668,559.36218 C 355.57801,559.36218 354.91546,559.03478 355.1853,557.61218 C 355.42521,556.34743 356.65523,555.77878 359.62125,555.5614 C 362.84892,555.32484 363.96354,554.73762 364.84119,552.8114 C 366.02311,550.21736 368.54397,549.51462 369.14301,551.61218 C 369.33936,552.29968 369.36026,558.14968 369.18946,564.61218 L 368.87892,576.36218 L 361.43946,576.36218 C 357.34776,576.36218 354,575.94432 354,575.43361 z M 382,575.25524 C 382,574.64642 384.49424,571.80837 387.54276,568.94846 C 391.52099,565.21638 392.90212,563.27069 392.43578,562.05541 C 392.07841,561.12413 391.41631,560.36218 390.96444,560.36218 C 389.55709,560.36218 386.95196,557.24893 387.54983,556.28156 C 387.86234,555.7759 391.24148,555.36218 395.05902,555.36218 C 402.72846,555.36218 404.19457,556.87813 399.5,559.95414 C 397.20689,561.45664 397,562.20335 397,568.97719 L 397,576.36218 L 389.5,576.36218 C 384.6836,576.36218 382,575.9661 382,575.25524 z M 382.58062,552.79994 C 380.75222,550.97154 380.58102,549.01356 382.01525,546.33368 C 383.66707,543.24724 386,545.04841 386,549.41015 C 386,553.86201 384.81622,555.03554 382.58062,552.79994 z M 403.80907,551.84247 C 402.96894,549.99859 402.96894,548.72577 403.80907,546.88189 C 405.49576,543.18001 408,544.66208 408,549.36218 C 408,554.06228 405.49576,555.54435 403.80907,551.84247 z M 349.18672,546.61218 C 349.45529,545.20231 350.76379,544.80351 355.91899,544.56034 C 360.25339,544.35588 362.56795,544.66311 363.09296,545.51259 C 364.48773,547.76938 362.98465,548.36218 355.86766,548.36218 C 349.72704,548.36218 348.89488,548.1442 349.18672,546.61218 z M 365,529.37131 C 358.06969,522.02301 357.19455,521.4168 353.47876,521.39057 C 349.86171,521.36503 348.95707,521.91418 344.47876,526.85388 C 339.93872,531.86166 339.12549,532.34631 335.25,532.35388 C 331.6639,532.36088 331,532.04976 331,530.36218 C 331,529.11096 331.66667,528.36218 332.78068,528.36218 C 333.76005,528.36218 336.92871,525.88718 339.82214,522.86218 L 345.08292,517.36218 L 354.04146,517.36218 C 358.96866,517.36218 363.01431,517.69968 363.0318,518.11218 C 363.0493,518.52468 363.69665,519.69788 364.47037,520.7193 C 365.50831,522.08951 367.50245,522.67178 372.07636,522.94016 L 378.27558,523.30391 L 384.02807,517.33305 L 389.78056,511.36218 L 397.6676,511.36218 C 405.17931,511.36218 405.6799,511.50494 408.18709,514.36218 C 410.30647,516.77748 411.61673,517.36218 414.90977,517.36218 L 419,517.36218 L 419,521.86218 C 419,527.00841 417.63813,527.63637 414.53757,523.91981 C 412.62239,521.62414 411.83926,521.46724 401.5,521.30773 C 387.02552,521.08442 387.52929,521.00468 386.05912,523.75172 C 385.35575,525.06597 383.73165,526.61905 382.45001,527.203 C 380.62591,528.03412 380.05245,529.19846 379.80988,532.56346 C 379.51176,536.69906 379.36719,536.87094 376,537.09292 C 372.81095,537.30315 371.83369,536.61715 365,529.37131 z"
         id="path2457"
         style="fill:#494949;fill-opacity:1" />
      <path
         d="M 331,574.36218 C 331,572.81684 331.66667,572.36218 333.93261,572.36218 C 335.88992,572.36218 337.05727,571.75711 337.44267,570.5428 C 337.76027,569.54214 339.41783,567.69005 341.12613,566.42705 C 344.14231,564.19709 344.21338,563.96482 343.58334,558.39604 C 343.07502,553.90305 343.26384,552.3881 344.45544,551.39916 C 346.24717,549.91216 346.75514,550.82691 347.21146,556.36218 C 347.41813,558.86905 348.13844,560.14228 349.75,560.84931 C 352.71094,562.14834 352.60546,564.12919 349.5,565.54413 C 347.01508,566.67634 346.49755,568.29045 346.91317,573.61218 L 347.12794,576.36218 L 339.06397,576.36218 C 331.66667,576.36218 331,576.19684 331,574.36218 z M 355,575.31852 C 355,574.74451 357.4991,571.83496 360.55356,568.85285 C 365.39237,564.12867 365.96699,563.16903 365.01837,561.39651 C 364.17308,559.81706 362.93129,559.36218 359.46482,559.36218 C 356.31516,559.36218 355,558.95185 355,557.96917 C 355,556.16945 356.96894,555.44242 360.18038,556.05633 C 362.18998,556.44049 363.2047,555.88344 364.94347,553.44157 C 366.15867,551.73497 367.56852,550.59551 368.07647,550.90944 C 368.58441,551.22337 369,557.07866 369,563.9212 L 369,576.36218 L 362,576.36218 C 357.80478,576.36218 355,575.944 355,575.31852 z M 382,575.38523 C 382,574.84791 383.10745,573.68266 384.46101,572.79577 C 385.81456,571.90889 387.17321,570.39181 387.48023,569.42448 C 387.78725,568.45715 389.15479,567.15705 390.51922,566.53538 C 393.76248,565.05765 393.68756,562.02984 390.34753,559.5968 C 388.88867,558.5341 387.97013,557.21953 388.30633,556.67554 C 388.93892,555.652 400.66386,555.69271 401.69317,556.72202 C 402.0129,557.04175 400.86273,558.62213 399.13725,560.23397 C 396.23395,562.94606 396,563.65668 396,569.76339 L 396,576.36218 L 389,576.36218 C 385.11012,576.36218 382,575.92812 382,575.38523 z M 382,549.36218 C 382,545.95127 382.3105,545.27533 383.75,545.55255 C 386.23145,546.03043 386.23145,552.69393 383.75,553.17181 C 382.3105,553.44903 382,552.77309 382,549.36218 z M 404,549.36218 C 404,545.95127 404.3105,545.27533 405.75,545.55255 C 408.23145,546.03043 408.23145,552.69393 405.75,553.17181 C 404.3105,553.44903 404,552.77309 404,549.36218 z M 349.57003,547.47549 C 348.46492,545.68739 351.74717,544.44724 357.04274,544.65203 C 361.32154,544.81751 362.54782,545.23417 362.81163,546.61218 C 363.10297,548.13404 362.2974,548.36218 356.63234,548.36218 C 353.04947,548.36218 349.87143,547.96317 349.57003,547.47549 z M 371.4721,534.95994 C 370.56404,533.57407 368.98436,532.1746 367.96169,531.85002 C 366.93903,531.52544 365.82729,530.49539 365.49117,529.56103 C 364.45637,526.68444 356.06344,520.36218 353.27952,520.36218 C 351.47607,520.36218 349.00847,522.04936 345.1096,525.94824 C 340.39452,530.66331 338.85904,531.59658 335.26177,531.93379 C 331.54287,532.2824 331,532.08037 331,530.34773 C 331,528.95777 331.67491,528.35969 333.25,528.35388 C 334.6996,528.34853 337.2711,526.39201 340.47876,522.85388 L 345.45751,517.36218 L 353.5407,517.36218 C 361.36246,517.36218 361.69562,517.4592 363.84188,520.36218 C 365.90056,523.1467 366.51515,523.36218 372.39836,523.36218 C 378.60398,523.36218 378.83393,523.2651 383.36842,518.7306 C 385.91579,516.18323 388,513.70823 388,513.2306 C 388,512.75297 392.275,512.36218 397.5,512.36218 C 402.725,512.36218 407,512.78004 407,513.29075 C 407,515.54813 410.3735,517.36218 414.57143,517.36218 L 419,517.36218 L 419,521.86218 C 419,527.05064 418.02128,527.47716 414.98429,523.61218 C 412.87469,520.92744 412.54087,520.85426 400.9164,520.52854 L 389.00939,520.1949 L 384.57389,524.63039 C 381.09792,528.10637 380.06934,529.90917 379.8192,532.96404 C 379.52674,536.53564 379.23291,536.88805 376.31156,537.17095 C 373.81437,537.41277 372.76517,536.93343 371.4721,534.95994 z"
         id="path2455"
         style="fill:#333333;fill-opacity:1" />
    </g>
  </g>
</svg>
