<?xml version="1.0" encoding="UTF-8" standalone="no"?>
<!-- Created with Inkscape (http://www.inkscape.org/) -->
<svg
   xmlns:svg="http://www.w3.org/2000/svg"
   xmlns="http://www.w3.org/2000/svg"
   version="1.0"
   width="36.931744"
   height="25.002064"
   id="svg2399">
  <defs
     id="defs2401" />
  <path
     d="M 2.9506418,18.470622 C 7.393935,10.44167 14.077373,10.808082 15.144088,19.139113 C 15.700335,23.4834 14.856925,25.002064 11.88802,25.002064 C 8.595445,25.002064 8.407695,24.430258 10.834701,21.794116 C 13.215765,19.207875 13.157116,18.57982 10.532082,18.553419 C 7.9746027,18.527698 8.0395296,18.07588 10.834701,16.447536 C 13.858011,14.686289 13.753136,14.369474 10.137586,14.341653 C 7.7968947,14.323641 6.0550765,15.511884 6.2668794,16.982194 C 7.0683538,22.545933 5.9799379,25.002064 2.7129338,25.002064 C -0.15600594,25.002064 -0.12025235,24.019671 2.9506418,18.470622 z M 22.521701,21.984514 C 24.420876,19.921686 24.512785,18.528468 22.812195,17.581034 C 21.443982,16.818772 20.40882,15.048922 20.511834,13.64803 C 20.646886,11.811473 21.03294,11.846681 21.895768,13.774246 C 23.407125,17.150626 29.814369,17.29483 29.814369,13.952464 C 29.814369,12.580177 30.336979,11.928497 30.975725,12.50429 C 33.079441,14.400666 26.326112,24.968331 22.999612,24.985378 C 20.465416,24.998364 20.359463,24.333072 22.521701,21.984514 z M 12.546261,6.3806888 C 9.3828498,3.5290588 7.8691289,3.2949488 5.6322397,5.3113728 C 1.3901046,9.1354088 -2.1167677,8.4449858 1.5145984,4.5007038 C 3.6701966,2.1593568 6.805427,1.4992008 11.634568,2.3698388 C 15.482804,3.0636308 20.066067,2.5579318 21.819598,1.2460638 C 25.173584,-1.2631528 36.931744,0.32411296 36.931744,3.2860928 C 36.931744,4.2362128 33.741224,4.5914668 29.841699,4.0755458 C 24.828918,3.4123378 22.321736,4.1474398 21.284269,6.5845738 C 19.417712,10.969336 17.589278,10.926673 12.546261,6.3806888 z"
     id="path2393"
     style="fill:#333333;fill-opacity:1" />
</svg>
