<?xml version="1.0" encoding="UTF-8" standalone="no"?>
<!-- Created with Inkscape (http://www.inkscape.org/) -->
<svg
   xmlns:svg="http://www.w3.org/2000/svg"
   xmlns="http://www.w3.org/2000/svg"
   version="1.0"
   width="88"
   height="59.574268"
   id="svg2399">
  <defs
     id="defs2401" />
  <path
     d="M 7.0307128,44.011318 C 17.618076,24.88014 33.543198,25.753217 36.084939,45.604181 C 37.41035,55.955635 35.400695,59.574268 28.326465,59.574268 C 20.481003,59.574268 20.033637,58.211784 25.816644,51.930453 C 31.490181,45.768025 31.350434,44.271512 25.095571,44.208604 C 19.001676,44.147317 19.156382,43.070737 25.816644,39.190761 C 33.020508,34.994108 32.770615,34.239209 24.155576,34.172918 C 18.578238,34.129999 14.427879,36.961314 14.932557,40.46473 C 16.842289,53.721863 14.248841,59.574268 6.4643078,59.574268 C -0.37172722,59.574268 -0.28653422,57.233448 7.0307128,44.011318 z M 53.664124,52.384129 C 58.189429,47.468876 58.408427,44.149152 54.356305,41.891631 C 51.096163,40.075333 48.629606,35.85818 48.875065,32.520171 C 49.196863,28.144071 50.116743,28.227963 52.172667,32.820915 C 55.773889,40.866066 71.040904,41.209671 71.040904,33.245568 C 71.040904,29.975719 72.286165,28.422912 73.808153,29.794897 C 78.820833,34.313533 62.729176,59.49389 54.802878,59.534509 C 48.764461,59.565452 48.511999,57.980211 53.664124,52.384129 z M 29.894904,15.203739 C 22.35721,8.4089495 18.750356,7.8511183 13.420354,12.655801 C 3.3123048,21.767615 -5.0437792,20.122493 3.6089458,10.72416 C 8.7452488,5.1452592 16.215794,3.5722562 27.722546,5.6467902 C 36.892023,7.2999398 47.812903,6.0949732 51.991171,2.9690882 C 59.982962,-3.0098078 88,0.7722882 88,7.8300165 C 88,10.093938 80.397712,10.940428 71.106025,9.7111046 C 59.161701,8.1308298 53.187653,9.8824117 50.715603,15.689551 C 46.26802,26.137449 41.911275,26.035792 29.894904,15.203739 z"
     id="path2393"
     style="fill:#333333;fill-opacity:1" />
</svg>
