<?xml version="1.0" encoding="UTF-8" standalone="no"?>
<!-- Created with Inkscape (http://www.inkscape.org/) -->
<svg
   xmlns:dc="http://purl.org/dc/elements/1.1/"
   xmlns:cc="http://creativecommons.org/ns#"
   xmlns:rdf="http://www.w3.org/1999/02/22-rdf-syntax-ns#"
   xmlns:svg="http://www.w3.org/2000/svg"
   xmlns="http://www.w3.org/2000/svg"
   xmlns:xlink="http://www.w3.org/1999/xlink"
   xmlns:sodipodi="http://sodipodi.sourceforge.net/DTD/sodipodi-0.dtd"
   xmlns:inkscape="http://www.inkscape.org/namespaces/inkscape"
   width="744.09448819"
   height="1052.3622047"
   id="svg2"
   sodipodi:version="0.32"
   inkscape:version="0.46"
   sodipodi:docname="qgn_menu_ayfly_s60.svg"
   inkscape:output_extension="org.inkscape.output.svg.inkscape">
  <defs
     id="defs4">
    <inkscape:perspective
       sodipodi:type="inkscape:persp3d"
       inkscape:vp_x="0 : 526.18109 : 1"
       inkscape:vp_y="0 : 1000 : 0"
       inkscape:vp_z="744.09448 : 526.18109 : 1"
       inkscape:persp3d-origin="372.04724 : 350.78739 : 1"
       id="perspective10" />
    <inkscape:perspective
       id="perspective2569"
       inkscape:persp3d-origin="372.04724 : 350.78739 : 1"
       inkscape:vp_z="744.09448 : 526.18109 : 1"
       inkscape:vp_y="0 : 1000 : 0"
       inkscape:vp_x="0 : 526.18109 : 1"
       sodipodi:type="inkscape:persp3d" />
    <inkscape:perspective
       id="perspective2621"
       inkscape:persp3d-origin="372.04724 : 350.78739 : 1"
       inkscape:vp_z="744.09448 : 526.18109 : 1"
       inkscape:vp_y="0 : 1000 : 0"
       inkscape:vp_x="0 : 526.18109 : 1"
       sodipodi:type="inkscape:persp3d" />
  </defs>
  <sodipodi:namedview
     id="base"
     pagecolor="#ffffff"
     bordercolor="#666666"
     borderopacity="1.0"
     gridtolerance="10000"
     guidetolerance="10"
     objecttolerance="10"
     inkscape:pageopacity="0.0"
     inkscape:pageshadow="2"
     inkscape:zoom="2.8"
     inkscape:cx="80.377424"
     inkscape:cy="962.92593"
     inkscape:document-units="px"
     inkscape:current-layer="layer1"
     showgrid="false"
     inkscape:window-width="876"
     inkscape:window-height="796"
     inkscape:window-x="233"
     inkscape:window-y="94" />
  <metadata
     id="metadata7">
    <rdf:RDF>
      <cc:Work
         rdf:about="">
        <dc:format>image/svg+xml</dc:format>
        <dc:type
           rdf:resource="http://purl.org/dc/dcmitype/StillImage" />
      </cc:Work>
    </rdf:RDF>
  </metadata>
  <g
     inkscape:label="Layer 1"
     inkscape:groupmode="layer"
     id="layer1">
    <image
       y="402.64789"
       x="-141.14285"
       id="image2571"
       height="88"
       width="88"
       sodipodi:absref="/home/andrew/Projects/ayfly/src/s60/gfx/icon.png"
       xlink:href="icon.png" />
    <g
       id="g2627"
       transform="matrix(1.0568181,0,0,1.1866095,-119.44805,-72.818278)">
      <path
         style="fill:#d0d0d0;fill-opacity:1"
         d="M 137.07895,128.35028 C 137.12693,127.18533 137.36389,126.94838 137.68311,127.74611 C 137.97199,128.46798 137.93646,129.33048 137.60417,129.66278 C 137.27187,129.99507 137.03553,129.40444 137.07895,128.35028 z M 165.73333,124.80952 C 166.41167,124.1261 167.21857,123.81885 167.52646,124.12674 C 167.83435,124.43462 167.27935,124.99379 166.29313,125.36932 C 164.86793,125.912 164.75307,125.79714 165.73333,124.80952 z M 156.27236,116.93361 C 156.27236,114.45861 156.46738,113.44611 156.70573,114.68361 C 156.94409,115.92111 156.94409,117.94611 156.70573,119.18361 C 156.46738,120.42111 156.27236,119.40861 156.27236,116.93361 z M 183.15789,118.93361 C 183.15789,117.55861 183.38487,116.99611 183.66228,117.68361 C 183.93969,118.37111 183.93969,119.49611 183.66228,120.18361 C 183.38487,120.87111 183.15789,120.30861 183.15789,118.93361 z M 124.64239,117.93361 C 125.27071,117.10861 126.00601,115.53361 126.27639,114.43361 C 126.74332,112.53398 126.77382,112.54038 126.884,114.56116 C 126.9478,115.73132 126.2125,117.30632 125.25,118.06116 C 123.72801,119.2548 123.64884,119.23818 124.64239,117.93361 z M 174.56429,117.64048 C 174.93982,116.65426 175.49899,116.09926 175.80687,116.40715 C 176.11476,116.71504 175.80751,117.52194 175.12409,118.20028 C 174.13647,119.18054 174.02161,119.06568 174.56429,117.64048 z M 135,112.5406 C 135,112.32444 135.69837,111.8796 136.55194,111.55205 C 137.44186,111.21056 137.84326,111.3782 137.49292,111.94506 C 136.90566,112.89527 135,113.35051 135,112.5406 z M 156.19495,107.43361 C 156.21533,105.78361 156.43945,105.22967 156.69299,106.20264 C 156.94653,107.17561 156.92986,108.52561 156.65594,109.20264 C 156.38201,109.87967 156.17457,109.08361 156.19495,107.43361 z M 141.76166,107.22635 C 143.00557,106.98716 144.80557,106.99624 145.76166,107.24653 C 146.71775,107.49682 145.7,107.69252 143.5,107.68143 C 141.3,107.67033 140.51775,107.46554 141.76166,107.22635 z M 181.8125,107.2505 C 182.53438,106.96162 183.39687,106.99715 183.72917,107.32944 C 184.06146,107.66173 183.47083,107.89808 182.41667,107.85466 C 181.25172,107.80668 181.01477,107.56972 181.8125,107.2505 z M 164.232,102.93361 C 164.232,101.00861 164.4378,100.22111 164.68933,101.18361 C 164.94085,102.14611 164.94085,103.72111 164.68933,104.68361 C 164.4378,105.64611 164.232,104.85861 164.232,102.93361 z M 186.07895,101.35028 C 186.12693,100.18533 186.36389,99.948376 186.68311,100.74611 C 186.97199,101.46798 186.93646,102.33048 186.60417,102.66278 C 186.27187,102.99507 186.03553,102.40444 186.07895,101.35028 z M 187.73333,96.809521 C 188.41167,96.126103 189.21857,95.81885 189.52646,96.126737 C 189.83435,96.434624 189.27935,96.993785 188.29313,97.369316 C 186.86793,97.912001 186.75307,97.797137 187.73333,96.809521 z M 159.26903,93.240618 C 160.242,92.987075 161.592,93.003749 162.26903,93.277672 C 162.94606,93.551595 162.15,93.75904 160.5,93.73866 C 158.85,93.718281 158.29606,93.494162 159.26903,93.240618 z M 125,87.540598 C 125,87.324442 125.69837,86.879596 126.55194,86.552052 C 127.44186,86.210556 127.84326,86.378203 127.49292,86.945063 C 126.90566,87.895267 125,88.350511 125,87.540598 z M 172.87244,77.683609 C 173.62895,76.718987 175.4241,75.994726 176.87244,76.069791 L 179.5,76.205973 L 177,76.665609 C 175.625,76.918409 173.825,77.644627 173,78.279427 C 171.69492,79.283629 171.67834,79.206206 172.87244,77.683609 z M 137.26903,76.240618 C 138.242,75.987075 139.592,76.003749 140.26903,76.277672 C 140.94606,76.551595 140.15,76.75904 138.5,76.73866 C 136.85,76.718281 136.29606,76.494162 137.26903,76.240618 z M 192.75,76.271328 C 193.4375,75.993916 194.5625,75.993916 195.25,76.271328 C 195.9375,76.548741 195.375,76.775714 194,76.775714 C 192.625,76.775714 192.0625,76.548741 192.75,76.271328 z M 124,74.556054 C 124,74.348398 124.7875,73.560898 125.75,72.806054 C 127.33606,71.562183 127.37143,71.597553 126.12756,73.183609 C 124.82119,74.849357 124,75.379088 124,74.556054 z M 150.87244,73.183609 C 149.67834,71.661012 149.69492,71.583589 151,72.587791 C 151.825,73.222591 153.625,73.948809 155,74.201609 L 157.5,74.661245 L 154.87244,74.797427 C 153.4241,74.872492 151.62895,74.148231 150.87244,73.183609 z M 159.26903,74.240618 C 160.242,73.987075 161.592,74.003749 162.26903,74.277672 C 162.94606,74.551595 162.15,74.75904 160.5,74.73866 C 158.85,74.718281 158.29606,74.494162 159.26903,74.240618 z M 134.28017,68.197337 C 136.90927,67.990661 140.95927,67.993154 143.28017,68.202878 C 145.60108,68.412602 143.45,68.581701 138.5,68.578654 C 133.55,68.575606 131.65108,68.404014 134.28017,68.197337 z M 171.73333,63.809521 C 172.41167,63.126103 173.21857,62.81885 173.52646,63.126737 C 173.83435,63.434624 173.27935,63.993785 172.29313,64.369316 C 170.86793,64.912001 170.75307,64.797137 171.73333,63.809521 z M 192,63.933609 C 191.09871,63.351149 190.97537,62.958123 191.69098,62.948922 C 192.34602,62.9405 193.16008,63.383609 193.5,63.933609 C 194.26731,65.175134 193.92112,65.175134 192,63.933609 z"
         id="path2643" />
      <path
         style="fill:#b9b9b9;fill-opacity:1"
         d="M 133.25218,126.43361 C 133.26328,124.23361 133.46807,123.45136 133.70726,124.69527 C 133.94645,125.93918 133.93737,127.73918 133.68708,128.69527 C 133.43679,129.65136 133.24108,128.63361 133.25218,126.43361 z M 183.28601,125.43361 C 183.29352,122.68361 183.48773,121.6773 183.71758,123.19736 C 183.94744,124.71742 183.94129,126.96742 183.70393,128.19736 C 183.46657,129.4273 183.27851,128.18361 183.28601,125.43361 z M 116.8125,124.2505 C 117.53437,123.96162 118.39687,123.99715 118.72917,124.32944 C 119.06146,124.66173 118.47083,124.89808 117.41667,124.85466 C 116.25172,124.80668 116.01477,124.56972 116.8125,124.2505 z M 143,121.55605 C 143,121.3484 143.7875,120.5609 144.75,119.80605 C 146.33606,118.56218 146.37143,118.59755 145.12756,120.18361 C 143.82119,121.84936 143,122.37909 143,121.55605 z M 147.56429,117.64048 C 147.93982,116.65426 148.49899,116.09926 148.80687,116.40715 C 149.11476,116.71504 148.80751,117.52194 148.12409,118.20028 C 147.13647,119.18054 147.02161,119.06568 147.56429,117.64048 z M 144.8125,114.2505 C 145.53438,113.96162 146.39687,113.99715 146.72917,114.32944 C 147.06146,114.66173 146.47083,114.89808 145.41667,114.85466 C 144.25172,114.80668 144.01477,114.56972 144.8125,114.2505 z M 126.27236,108.93361 C 126.27236,106.45861 126.46738,105.44611 126.70573,106.68361 C 126.94409,107.92111 126.94409,109.94611 126.70573,111.18361 C 126.46738,112.42111 126.27236,111.40861 126.27236,108.93361 z M 133.07895,109.35028 C 133.12693,108.18533 133.36389,107.94838 133.68311,108.74611 C 133.97199,109.46798 133.93646,110.33048 133.60417,110.66278 C 133.27187,110.99507 133.03553,110.40444 133.07895,109.35028 z M 178.8125,107.2505 C 179.53438,106.96162 180.39687,106.99715 180.72917,107.32944 C 181.06146,107.66173 180.47083,107.89808 179.41667,107.85466 C 178.25172,107.80668 178.01477,107.56972 178.8125,107.2505 z M 172.27236,102.93361 C 172.27236,100.45861 172.46738,99.446109 172.70573,100.68361 C 172.94409,101.92111 172.94409,103.94611 172.70573,105.18361 C 172.46738,106.42111 172.27236,105.40861 172.27236,102.93361 z M 194.27236,102.93361 C 194.27236,100.45861 194.46738,99.446109 194.70573,100.68361 C 194.94409,101.92111 194.94409,103.94611 194.70573,105.18361 C 194.46738,106.42111 194.27236,105.40861 194.27236,102.93361 z M 142.75,103.27133 C 143.4375,102.99392 144.5625,102.99392 145.25,103.27133 C 145.9375,103.54874 145.375,103.77571 144,103.77571 C 142.625,103.77571 142.0625,103.54874 142.75,103.27133 z M 137.7277,96.211877 C 139.50293,95.990965 142.65293,95.987335 144.7277,96.203811 C 146.80246,96.420286 145.35,96.601032 141.5,96.605469 C 137.65,96.609905 135.95246,96.432789 137.7277,96.211877 z M 154.87244,91.183609 C 153.62857,89.597553 153.66394,89.562183 155.25,90.806054 C 156.91575,92.112423 157.44548,92.933609 156.62244,92.933609 C 156.41479,92.933609 155.62729,92.146109 154.87244,91.183609 z M 164,92.556054 C 164,92.348398 164.7875,91.560898 165.75,90.806054 C 167.33606,89.562183 167.37143,89.597553 166.12756,91.183609 C 164.82119,92.849357 164,93.379088 164,92.556054 z M 118.26375,87.216028 C 119.78381,86.986173 122.03381,86.992316 123.26375,87.229678 C 124.49369,87.46704 123.25,87.655102 120.5,87.647595 C 117.75,87.640087 116.74369,87.445882 118.26375,87.216028 z M 198.87244,80.183609 C 197.62857,78.597553 197.66394,78.562183 199.25,79.806054 C 200.91575,81.112423 201.44548,81.933609 200.62244,81.933609 C 200.41479,81.933609 199.62729,81.146109 198.87244,80.183609 z M 181.7277,76.211877 C 183.50293,75.990965 186.65293,75.987335 188.7277,76.203811 C 190.80246,76.420286 189.35,76.601032 185.5,76.605469 C 181.65,76.609905 179.95246,76.432789 181.7277,76.211877 z M 178.28017,63.197337 C 180.90927,62.990661 184.95927,62.993154 187.28017,63.202878 C 189.60108,63.412602 187.45,63.581701 182.5,63.578654 C 177.55,63.575606 175.65108,63.404014 178.28017,63.197337 z"
         id="path2641" />
      <path
         style="fill:#a3a3a3;fill-opacity:1"
         d="M 155.37817,118.93361 C 155.37817,112.60861 155.54054,110.02111 155.73899,113.18361 C 155.93744,116.34611 155.93744,121.52111 155.73899,124.68361 C 155.54054,127.84611 155.37817,125.25861 155.37817,118.93361 z M 165.07895,128.35028 C 165.12693,127.18533 165.36389,126.94838 165.68311,127.74611 C 165.97198,128.46798 165.93646,129.33048 165.60417,129.66278 C 165.27187,129.99507 165.03553,129.40444 165.07895,128.35028 z M 171,121.55605 C 171,121.3484 171.7875,120.5609 172.75,119.80605 C 174.33606,118.56218 174.37143,118.59755 173.12756,120.18361 C 171.82119,121.84936 171,122.37909 171,121.55605 z M 141.8125,114.2505 C 142.53438,113.96162 143.39687,113.99715 143.72917,114.32944 C 144.06146,114.66173 143.47083,114.89808 142.41667,114.85466 C 141.25172,114.80668 141.01477,114.56972 141.8125,114.2505 z M 188,110.99263 C 188,110.47509 188.44485,109.77671 188.98855,109.44069 C 189.55541,109.09035 189.72305,109.49175 189.38156,110.38167 C 188.71677,112.11409 188,112.43106 188,110.99263 z M 133.07895,106.35028 C 133.12693,105.18533 133.36389,104.94838 133.68311,105.74611 C 133.97199,106.46798 133.93646,107.33048 133.60417,107.66278 C 133.27187,107.99507 133.03553,107.40444 133.07895,106.35028 z M 187.07895,104.35028 C 187.12693,103.18533 187.36389,102.94838 187.68311,103.74611 C 187.97199,104.46798 187.93646,105.33048 187.60417,105.66278 C 187.27187,105.99507 187.03553,105.40444 187.07895,104.35028 z M 136.76166,103.22635 C 138.00557,102.98716 139.80557,102.99624 140.76166,103.24653 C 141.71775,103.49682 140.7,103.69253 138.5,103.68143 C 136.3,103.67033 135.51775,103.46554 136.76166,103.22635 z M 150.50708,101.94506 C 150.15674,101.3782 150.55814,101.21056 151.44806,101.55205 C 153.18048,102.21684 153.49745,102.93361 152.05902,102.93361 C 151.54148,102.93361 150.8431,102.48876 150.50708,101.94506 z M 158.76166,92.226348 C 160.00557,91.987155 161.80557,91.996236 162.76166,92.246529 C 163.71775,92.496821 162.7,92.692525 160.5,92.681426 C 158.3,92.670326 157.51775,92.465541 158.76166,92.226348 z M 166.15789,87.933609 C 166.15789,86.558609 166.38487,85.996109 166.66228,86.683609 C 166.93969,87.371109 166.93969,88.496109 166.66228,89.183609 C 166.38487,89.871109 166.15789,89.308609 166.15789,87.933609 z M 201.8125,81.250495 C 202.53438,80.961624 203.39687,80.997151 203.72917,81.329442 C 204.06146,81.661734 203.47083,81.898083 202.41667,81.854662 C 201.25172,81.806678 201.01477,81.569721 201.8125,81.250495 z M 116.8125,80.250495 C 117.53437,79.961624 118.39687,79.997151 118.72917,80.329442 C 119.06146,80.661734 118.47083,80.898083 117.41667,80.854662 C 116.25172,80.806678 116.01477,80.569721 116.8125,80.250495 z M 134.28017,69.197337 C 136.90927,68.990661 140.95927,68.993154 143.28017,69.202878 C 145.60108,69.412602 143.45,69.581701 138.5,69.578654 C 133.55,69.575606 131.65108,69.404014 134.28017,69.197337 z M 197.75,69.227876 C 198.9875,68.989523 201.0125,68.989523 202.25,69.227876 C 203.4875,69.466229 202.475,69.661245 200,69.661245 C 197.525,69.661245 196.5125,69.466229 197.75,69.227876 z"
         id="path2639" />
      <path
         style="fill:#8c8c8c;fill-opacity:1"
         d="M 182.32814,123.43361 C 182.33258,119.58361 182.51332,118.13115 182.7298,120.20591 C 182.94627,122.28068 182.94264,125.43068 182.72173,127.20591 C 182.50082,128.98115 182.3237,127.28361 182.32814,123.43361 z M 127.15789,114.93361 C 127.15789,113.55861 127.38487,112.99611 127.66228,113.68361 C 127.93969,114.37111 127.93969,115.49611 127.66228,116.18361 C 127.38487,116.87111 127.15789,116.30861 127.15789,114.93361 z M 138.30279,114.1419 C 137.5132,113.63996 137.42287,112.87909 138.03747,111.90722 C 138.83043,110.65332 138.97166,110.68211 138.98469,112.10028 C 138.99311,113.01694 139.5625,113.99392 140.25,114.27133 C 140.9375,114.54874 141.05,114.80435 140.5,114.83935 C 139.95,114.87435 138.96125,114.5605 138.30279,114.1419 z M 142.25,108.24428 C 143.2125,107.99276 144.7875,107.99276 145.75,108.24428 C 146.7125,108.49581 145.925,108.70161 144,108.70161 C 142.075,108.70161 141.2875,108.49581 142.25,108.24428 z M 178.25,108.24428 C 179.2125,107.99276 180.7875,107.99276 181.75,108.24428 C 182.7125,108.49581 181.925,108.70161 180,108.70161 C 178.075,108.70161 177.2875,108.49581 178.25,108.24428 z M 148.78253,104.29037 C 148.52541,103.81915 148.60708,102.30861 148.964,100.93361 C 149.5864,98.535868 149.6363,98.521114 150.1839,100.57291 C 150.77065,102.77136 149.61966,105.82462 148.78253,104.29037 z M 165.15789,102.93361 C 165.15789,101.55861 165.38487,100.99611 165.66228,101.68361 C 165.93969,102.37111 165.93969,103.49611 165.66228,104.18361 C 165.38487,104.87111 165.15789,104.30861 165.15789,102.93361 z M 131.5,101.93361 C 131.83992,101.38361 132.31648,100.93361 132.55902,100.93361 C 132.80156,100.93361 133,101.38361 133,101.93361 C 133,102.48361 132.52344,102.93361 131.94098,102.93361 C 131.35852,102.93361 131.16008,102.48361 131.5,101.93361 z M 127,83.556054 C 127,83.348398 127.7875,82.560898 128.75,81.806054 C 130.33606,80.562183 130.37143,80.597553 129.12756,82.183609 C 127.82119,83.849357 127,84.379088 127,83.556054 z M 147.87244,82.183609 C 146.62857,80.597553 146.66394,80.562183 148.25,81.806054 C 149.91575,83.112423 150.44548,83.933609 149.62244,83.933609 C 149.41479,83.933609 148.62729,83.146109 147.87244,82.183609 z M 137.26903,75.240618 C 138.242,74.987075 139.592,75.003749 140.26903,75.277672 C 140.94606,75.551595 140.15,75.75904 138.5,75.73866 C 136.85,75.718281 136.29606,75.494162 137.26903,75.240618 z M 154.75,75.210213 C 156.5375,74.988387 159.4625,74.988387 161.25,75.210213 C 163.0375,75.43204 161.575,75.613535 158,75.613535 C 154.425,75.613535 152.9625,75.43204 154.75,75.210213 z M 179.25,75.194621 C 182.4125,74.99617 187.5875,74.99617 190.75,75.194621 C 193.9125,75.393071 191.325,75.55544 185,75.55544 C 178.675,75.55544 176.0875,75.393071 179.25,75.194621 z M 179.76791,64.208878 C 181.56526,63.986316 184.26526,63.990909 185.76791,64.219083 C 187.27056,64.447257 185.8,64.629353 182.5,64.62374 C 179.2,64.618127 177.97056,64.431439 179.76791,64.208878 z"
         id="path2637" />
      <path
         style="fill:#767676;fill-opacity:1"
         d="M 132.27236,125.93361 C 132.27236,123.45861 132.46738,122.44611 132.70573,123.68361 C 132.94409,124.92111 132.94409,126.94611 132.70573,128.18361 C 132.46738,129.42111 132.27236,128.40861 132.27236,125.93361 z M 154.28601,125.43361 C 154.29352,122.68361 154.48773,121.6773 154.71758,123.19736 C 154.94744,124.71742 154.94129,126.96742 154.70393,128.19736 C 154.46657,129.4273 154.27851,128.18361 154.28601,125.43361 z M 116.75,125.27133 C 117.4375,124.99392 118.5625,124.99392 119.25,125.27133 C 119.9375,125.54874 119.375,125.77571 118,125.77571 C 116.625,125.77571 116.0625,125.54874 116.75,125.27133 z M 148.73121,116.01377 C 148.29624,114.35042 148.42638,113.95999 149.16845,114.70206 C 149.74955,115.28316 150.02824,116.34888 149.78776,117.07032 C 149.53812,117.81927 149.08482,117.36597 148.73121,116.01377 z M 137.56476,115.03839 C 137.26046,114.54602 137.66099,113.89394 138.45482,113.58932 C 139.41759,113.21987 139.71301,113.51793 139.34208,114.48454 C 138.69748,116.16435 138.33119,116.2785 137.56476,115.03839 z M 127.27236,108.93361 C 127.27236,106.45861 127.46738,105.44611 127.70573,106.68361 C 127.94409,107.92111 127.94409,109.94611 127.70573,111.18361 C 127.46738,112.42111 127.27236,111.40861 127.27236,108.93361 z M 154.07895,111.35028 C 154.12693,110.18533 154.36389,109.94838 154.68311,110.74611 C 154.97198,111.46798 154.93646,112.33048 154.60417,112.66278 C 154.27187,112.99507 154.03553,112.40444 154.07895,111.35028 z M 170.67063,109.01688 C 170.5379,108.69608 170.71513,106.40861 171.06446,103.93361 L 171.69961,99.433609 L 171.84981,103.61719 C 171.98516,107.38747 172.27167,107.83439 174.75,108.14111 C 177.42136,108.47172 177.40581,108.49744 174.20597,109.0408 C 172.39426,109.34844 170.80335,109.33768 170.67063,109.01688 z M 185,108.94298 C 182.61771,108.31866 182.65509,108.26378 185.79403,107.77744 C 187.60574,107.49674 189.29066,107.59489 189.53829,107.99555 C 190.24613,109.14088 187.74641,109.66273 185,108.94298 z M 130.68851,103.23593 C 131.95156,102.99047 133.05687,101.88517 133.30232,100.62212 C 133.65245,98.820485 133.75171,98.919743 133.86382,101.18361 C 133.98248,103.57985 133.64625,103.91609 131.25,103.79743 C 128.98613,103.68532 128.88688,103.58606 130.68851,103.23593 z M 150.8125,103.25049 C 151.53438,102.96162 152.39687,102.99715 152.72917,103.32944 C 153.06146,103.66173 152.47083,103.89808 151.41667,103.85466 C 150.25172,103.80668 150.01477,103.56972 150.8125,103.25049 z M 137.75,97.210213 C 139.5375,96.988387 142.4625,96.988387 144.25,97.210213 C 146.0375,97.43204 144.575,97.613535 141,97.613535 C 137.425,97.613535 135.9625,97.43204 137.75,97.210213 z M 117.75,86.227876 C 118.9875,85.989523 121.0125,85.989523 122.25,86.227876 C 123.4875,86.466229 122.475,86.661245 120,86.661245 C 117.525,86.661245 116.5125,86.466229 117.75,86.227876 z M 165.15789,84.933609 C 165.15789,83.558609 165.38487,82.996109 165.66228,83.683609 C 165.93969,84.371109 165.93969,85.496109 165.66228,86.183609 C 165.38487,86.871109 165.15789,86.308609 165.15789,84.933609 z M 125,75.556054 C 125,75.348398 125.7875,74.560898 126.75,73.806054 C 128.33606,72.562183 128.37143,72.597553 127.12756,74.183609 C 125.82119,75.849357 125,76.379088 125,75.556054 z M 199.25,70.244283 C 200.2125,69.992756 201.7875,69.992756 202.75,70.244283 C 203.7125,70.495811 202.925,70.701606 201,70.701606 C 199.075,70.701606 198.2875,70.495811 199.25,70.244283 z"
         id="path2635" />
      <path
         style="fill:#606060;fill-opacity:1"
         d="M 154.27236,116.93361 C 154.27236,114.45861 154.46738,113.44611 154.70573,114.68361 C 154.94409,115.92111 154.94409,117.94611 154.70573,119.18361 C 154.46738,120.42111 154.27236,119.40861 154.27236,116.93361 z M 136,114.93361 C 135.09871,114.35115 134.97537,113.95812 135.69098,113.94892 C 136.34602,113.9405 137.16008,114.38361 137.5,114.93361 C 138.2673,116.17513 137.92112,116.17513 136,114.93361 z M 139.33583,112.36639 C 139.00506,111.50442 139.21901,110.3146 139.81127,109.72234 C 140.58038,108.95323 140.73354,109.23655 140.34723,110.71379 C 139.90896,112.38973 140.3464,112.86288 142.65318,113.20801 L 145.5,113.63394 L 142.71861,113.78378 C 141.01065,113.87578 139.70513,113.32877 139.33583,112.36639 z M 132.19495,106.43361 C 132.21533,104.78361 132.43945,104.22967 132.69299,105.20264 C 132.94653,106.17561 132.92986,107.52561 132.65594,108.20264 C 132.38201,108.87967 132.17457,108.08361 132.19495,106.43361 z M 188.45888,106.86708 C 188.09635,106.28049 188.0142,105.58608 188.27633,105.32395 C 188.53845,105.06182 189.01939,105.54176 189.34508,106.39048 C 190.02126,108.15259 189.44493,108.46254 188.45888,106.86708 z M 136.7277,102.21188 C 138.50293,101.99096 141.65293,101.98734 143.7277,102.20381 C 145.80246,102.42029 144.35,102.60103 140.5,102.60547 C 136.65,102.6099 134.95246,102.43279 136.7277,102.21188 z M 159.26903,91.240618 C 160.242,90.987075 161.592,91.003749 162.26903,91.277672 C 162.94606,91.551595 162.15,91.75904 160.5,91.73866 C 158.85,91.718281 158.29606,91.494162 159.26903,91.240618 z M 127,82.556054 C 127,82.348398 127.7875,81.560898 128.75,80.806054 C 130.33606,79.562183 130.37143,79.597553 129.12756,81.183609 C 127.82119,82.849357 127,83.379088 127,82.556054 z M 147.87244,81.183609 C 146.62857,79.597553 146.66394,79.562183 148.25,80.806054 C 149.2125,81.560898 150,82.348398 150,82.556054 C 150,83.379088 149.17881,82.849357 147.87244,81.183609 z M 116.75,81.271328 C 117.4375,80.993916 118.5625,80.993916 119.25,81.271328 C 119.9375,81.548741 119.375,81.775714 118,81.775714 C 116.625,81.775714 116.0625,81.548741 116.75,81.271328 z M 132,77.556054 C 132,77.348398 132.7875,76.560898 133.75,75.806054 C 135.33606,74.562183 135.37143,74.597553 134.12756,76.183609 C 132.82119,77.849357 132,78.379088 132,77.556054 z M 142.87244,76.183609 C 141.62857,74.597553 141.66394,74.562183 143.25,75.806054 C 144.91575,77.112423 145.44548,77.933609 144.62244,77.933609 C 144.41479,77.933609 143.62729,77.146109 142.87244,76.183609 z M 153.8125,76.250495 C 154.53438,75.961624 155.39687,75.997151 155.72917,76.329442 C 156.06146,76.661734 155.47083,76.898083 154.41667,76.854662 C 153.25172,76.806678 153.01477,76.569721 153.8125,76.250495 z M 159.75,76.271328 C 160.4375,75.993916 161.5625,75.993916 162.25,76.271328 C 162.9375,76.548741 162.375,76.775714 161,76.775714 C 159.625,76.775714 159.0625,76.548741 159.75,76.271328 z M 175.8125,74.250495 C 176.53438,73.961624 177.39687,73.997151 177.72917,74.329442 C 178.06146,74.661734 177.47083,74.898083 176.41667,74.854662 C 175.25172,74.806678 175.01477,74.569721 175.8125,74.250495 z M 134.28017,70.197337 C 136.90927,69.990661 140.95927,69.993154 143.28017,70.202878 C 145.60108,70.412602 143.45,70.581701 138.5,70.578654 C 133.55,70.575606 131.65108,70.404014 134.28017,70.197337 z"
         id="path2633" />
      <path
         style="fill:#494949;fill-opacity:1"
         d="M 181.32814,123.43361 C 181.33258,119.58361 181.51332,118.13115 181.7298,120.20591 C 181.94627,122.28068 181.94264,125.43068 181.72173,127.20591 C 181.50082,128.98115 181.3237,127.28361 181.32814,123.43361 z M 128.15789,112.93361 C 128.15789,111.55861 128.38487,110.99611 128.66228,111.68361 C 128.93969,112.37111 128.93969,113.49611 128.66228,114.18361 C 128.38487,114.87111 128.15789,114.30861 128.15789,112.93361 z M 144.75,109.27133 C 145.4375,108.99392 146.5625,108.99392 147.25,109.27133 C 147.9375,109.54874 147.375,109.77571 146,109.77571 C 144.625,109.77571 144.0625,109.54874 144.75,109.27133 z M 178.25,109.24428 C 179.2125,108.99276 180.7875,108.99276 181.75,109.24428 C 182.7125,109.49581 181.925,109.70161 180,109.70161 C 178.075,109.70161 177.2875,109.49581 178.25,109.24428 z M 166.15789,102.93361 C 166.15789,101.55861 166.38487,100.99611 166.66228,101.68361 C 166.93969,102.37111 166.93969,103.49611 166.66228,104.18361 C 166.38487,104.87111 166.15789,104.30861 166.15789,102.93361 z M 188.15789,102.93361 C 188.15789,101.55861 188.38487,100.99611 188.66228,101.68361 C 188.93969,102.37111 188.93969,103.49611 188.66228,104.18361 C 188.38487,104.87111 188.15789,104.30861 188.15789,102.93361 z M 120,81.556054 C 120,81.348398 120.7875,80.560898 121.75,79.806054 C 123.33606,78.562183 123.37143,78.597553 122.12756,80.183609 C 120.82119,81.849357 120,82.379088 120,81.556054 z M 156.8125,76.250495 C 157.53438,75.961624 158.39687,75.997151 158.72917,76.329442 C 159.06146,76.661734 158.47083,76.898083 157.41667,76.854662 C 156.25172,76.806678 156.01477,76.569721 156.8125,76.250495 z M 137.26903,74.240618 C 138.242,73.987075 139.592,74.003749 140.26903,74.277672 C 140.94606,74.551595 140.15,74.75904 138.5,74.73866 C 136.85,74.718281 136.29606,74.494162 137.26903,74.240618 z M 182.25,74.19857 C 184.8625,73.992571 189.1375,73.992571 191.75,74.19857 C 194.3625,74.404568 192.225,74.573113 187,74.573113 C 181.775,74.573113 179.6375,74.404568 182.25,74.19857 z M 178.28017,65.197337 C 180.90927,64.990661 184.95927,64.993154 187.28017,65.202878 C 189.60108,65.412602 187.45,65.581701 182.5,65.578654 C 177.55,65.575606 175.65108,65.404014 178.28017,65.197337 z"
         id="path2631" />
      <path
         style="fill:#333333;fill-opacity:1"
         d="M 116,127.93361 C 116,126.38827 116.66667,125.93361 118.93261,125.93361 C 120.88992,125.93361 122.05727,125.32854 122.44267,124.11423 C 122.76027,123.11357 124.41783,121.26148 126.12613,119.99848 C 129.14231,117.76852 129.21338,117.53625 128.58334,111.96747 C 128.07502,107.47448 128.26384,105.95953 129.45544,104.97059 C 131.24717,103.48359 131.75514,104.39834 132.21146,109.93361 C 132.41813,112.44048 133.13844,113.71371 134.75,114.42074 C 137.71094,115.71977 137.60546,117.70062 134.5,119.11556 C 132.01508,120.24777 131.49755,121.86188 131.91317,127.18361 L 132.12794,129.93361 L 124.06397,129.93361 C 116.66667,129.93361 116,129.76826 116,127.93361 z M 140,128.88995 C 140,128.31594 142.4991,125.40639 145.55356,122.42428 C 150.39237,117.7001 150.96699,116.74045 150.01837,114.96794 C 149.17308,113.38849 147.93129,112.93361 144.46482,112.93361 C 141.31516,112.93361 140,112.52328 140,111.5406 C 140,109.74088 141.96894,109.01385 145.18038,109.62776 C 147.18998,110.01192 148.2047,109.45487 149.94347,107.013 C 151.15867,105.3064 152.56852,104.16694 153.07647,104.48087 C 153.58441,104.79479 154,110.65008 154,117.49263 L 154,129.93361 L 147,129.93361 C 142.80478,129.93361 140,129.51543 140,128.88995 z M 167,128.95666 C 167,128.41934 168.10745,127.25408 169.46101,126.3672 C 170.81456,125.48032 172.17321,123.96324 172.48023,122.99591 C 172.78725,122.02858 174.15479,120.72848 175.51922,120.1068 C 178.76248,118.62908 178.68756,115.60127 175.34753,113.16823 C 173.88867,112.10553 172.97013,110.79096 173.30633,110.24697 C 173.93892,109.22343 185.66386,109.26414 186.69317,110.29345 C 187.0129,110.61318 185.86273,112.19356 184.13725,113.8054 C 181.23395,116.51749 181,117.2281 181,123.33482 L 181,129.93361 L 174,129.93361 C 170.11012,129.93361 167,129.49955 167,128.95666 z M 167,102.93361 C 167,99.522699 167.3105,98.846758 168.75,99.12398 C 171.23145,99.601863 171.23145,106.26535 168.75,106.74324 C 167.3105,107.02046 167,106.34452 167,102.93361 z M 189,102.93361 C 189,99.522699 189.3105,98.846758 190.75,99.12398 C 193.23145,99.601863 193.23145,106.26535 190.75,106.74324 C 189.3105,107.02046 189,106.34452 189,102.93361 z M 134.57003,101.04692 C 133.46492,99.258814 136.74717,98.018666 142.04274,98.223463 C 146.32154,98.388939 147.54782,98.805603 147.81163,100.18361 C 148.10297,101.70547 147.2974,101.93361 141.63234,101.93361 C 138.04947,101.93361 134.87143,101.5346 134.57003,101.04692 z M 156.4721,88.53137 C 155.56404,87.145495 153.98436,85.746031 152.96169,85.421451 C 151.93903,85.09687 150.82729,84.066823 150.49117,83.132457 C 149.45637,80.255868 141.06344,73.933609 138.27952,73.933609 C 136.47607,73.933609 134.00847,75.620789 130.1096,79.519665 C 125.39452,84.23474 123.85904,85.16801 120.26177,85.505218 C 116.54287,85.853828 116,85.651795 116,83.919163 C 116,82.529196 116.67491,81.931119 118.25,81.925309 C 119.6996,81.919962 122.2711,79.963437 125.47876,76.425309 L 130.45751,70.933609 L 138.5407,70.933609 C 146.36246,70.933609 146.69562,71.030634 148.84188,73.933609 C 150.90056,76.718126 151.51515,76.933609 157.39836,76.933609 C 163.60398,76.933609 163.83393,76.836525 168.36842,72.30203 C 170.91579,69.754662 173,67.279662 173,66.80203 C 173,66.324398 177.275,65.933609 182.5,65.933609 C 187.725,65.933609 192,66.351466 192,66.86218 C 192,69.119558 195.3735,70.933609 199.57143,70.933609 L 204,70.933609 L 204,75.433609 C 204,80.622067 203.02128,81.048584 199.98429,77.183609 C 197.8747,74.498866 197.54087,74.425692 185.9164,74.099967 L 174.00939,73.766326 L 169.57389,78.201823 C 166.09792,81.677796 165.06934,83.4806 164.8192,86.535465 C 164.52674,90.107073 164.23291,90.459474 161.31156,90.742376 C 158.81437,90.984202 157.76517,90.504854 156.4721,88.53137 z"
         id="path2629" />
    </g>
  </g>
</svg>
